<svg width="20" height="27" viewBox="0 0 20 27" fill="none" xmlns="http://www.w3.org/2000/svg">
<path d="M2.40782e-05 1.3341V25.3341C0.000785853 25.5771 0.0678034 25.8153 0.193862 26.023C0.31992 26.2307 0.500244 26.4002 0.715427 26.513C0.930611 26.6259 1.1725 26.6779 1.41507 26.6636C1.65763 26.6492 1.89168 26.5689 2.09202 26.4314L19.4254 14.4314C20.144 13.9341 20.144 12.7368 19.4254 12.2381L2.09202 0.238098C1.8921 0.0991981 1.65793 0.0177438 1.41496 0.00258523C1.172 -0.0125734 0.92952 0.0391435 0.713881 0.152117C0.498242 0.26509 0.317686 0.434999 0.191832 0.643384C0.0659785 0.851768 -0.000359367 1.09066 2.40782e-05 1.3341Z" fill="#FFF"/>
</svg>
