<svg width="21" height="28" viewBox="0 0 21 28" fill="none" xmlns="http://www.w3.org/2000/svg">
<path d="M20.3332 25.9999V1.99989C20.3325 1.7569 20.2654 1.51872 20.1394 1.31098C20.0133 1.10325 19.833 0.93383 19.6178 0.820957C19.4026 0.708086 19.1607 0.656036 18.9182 0.670414C18.6756 0.684792 18.4416 0.765051 18.2412 0.902552L0.907896 12.9026C0.18923 13.3999 0.18923 14.5972 0.907896 15.0959L18.2412 27.0959C18.4412 27.2348 18.6753 27.3162 18.9183 27.3314C19.1613 27.3466 19.4037 27.2948 19.6194 27.1819C19.835 27.0689 20.0156 26.899 20.1414 26.6906C20.2673 26.4822 20.3336 26.2433 20.3332 25.9999Z" fill="#FFF"/>
</svg>
