<svg width="44" height="20" viewBox="0 0 44 20" fill="none" xmlns="http://www.w3.org/2000/svg">
<path d="M6.50748 4.81523V6.75652C6.50748 6.88089 6.40647 6.98191 6.28209 6.98191H4.61087C3.38219 6.98191 2.41258 7.97351 2.41258 9.1802V15.3992C2.41258 15.5236 2.31156 15.6246 2.18718 15.6246H0.245901C0.121521 15.6246 0.0205078 15.5236 0.0205078 15.3992V4.96573C0.0205078 4.84135 0.121521 4.74033 0.245901 4.74033H2.18718C2.31156 4.74033 2.41258 4.84135 2.41258 4.96573C2.41258 5.15264 2.62492 5.2564 2.77472 5.14508C3.3815 4.69154 4.20886 4.58984 4.93452 4.58984H6.28277C6.40715 4.58984 6.50817 4.69085 6.50817 4.81523H6.50748Z" fill="white"/>
<path d="M8.16699 2.57503V0.719644C8.16699 0.595265 8.26801 0.494247 8.39239 0.494247H10.3337C10.4581 0.494247 10.5591 0.595265 10.5591 0.719644V2.57503C10.5591 2.69941 10.4581 2.80042 10.3337 2.80042H8.39239C8.26801 2.80042 8.16699 2.69941 8.16699 2.57503ZM8.16699 15.3999V4.96641C8.16699 4.84203 8.26801 4.74102 8.39239 4.74102H10.3337C10.4581 4.74102 10.5591 4.84203 10.5591 4.96641V15.3999C10.5591 15.5242 10.4581 15.6253 10.3337 15.6253H8.39239C8.26801 15.6253 8.16699 15.5242 8.16699 15.3999Z" fill="white"/>
<path d="M19.928 12.1694L21.5532 13.3706C21.6591 13.449 21.6755 13.6008 21.5903 13.6998C20.4627 15.0068 18.9578 15.7544 17.4137 15.7544C14.4176 15.7544 11.9602 13.2325 11.9602 10.1718C11.9602 7.1111 14.4176 4.61046 17.4137 4.61046C18.9571 4.61046 20.4606 5.35673 21.5876 6.64313C21.6749 6.74277 21.6584 6.89533 21.5519 6.97367L19.9253 8.17555C19.8339 8.24289 19.7068 8.23121 19.6284 8.14943C19.0175 7.51448 18.2156 7.06713 17.4137 7.06713C15.7321 7.06713 14.3963 8.46828 14.3963 10.1711C14.3963 11.8739 15.7328 13.2964 17.4137 13.2964C18.2156 13.2964 19.0175 12.8491 19.6291 12.1962C19.7075 12.1124 19.836 12.1 19.928 12.1681V12.1694Z" fill="white"/>
<path d="M32.7386 12.2203V15.4005C32.7386 15.5249 32.6376 15.6259 32.5132 15.6259H30.5286C30.4042 15.6259 30.3032 15.5249 30.3032 15.4005V12.7693C30.3032 11.4362 29.2127 10.345 27.8789 10.345H26.1534C26.029 10.345 25.928 10.446 25.928 10.5704V15.3999C25.928 15.5242 25.8269 15.6253 25.7026 15.6253H23.7613C23.6369 15.6253 23.5359 15.5242 23.5359 15.3999V0.719644C23.5359 0.595265 23.6369 0.494247 23.7613 0.494247H25.7026C25.8269 0.494247 25.928 0.595265 25.928 0.719644V7.68283C25.928 7.80721 26.029 7.90823 26.1534 7.90823H27.9545C28.0342 7.90823 28.1077 7.86631 28.1489 7.79759L29.893 4.85028C29.9335 4.78156 30.0071 4.73964 30.0875 4.73964H32.349C32.5228 4.73964 32.6314 4.92793 32.5441 5.07774L30.6736 8.31916C30.6131 8.4243 30.6468 8.55761 30.7492 8.62289C31.8679 9.33344 32.7393 10.7277 32.7393 12.2196L32.7386 12.2203Z" fill="white"/>
<path d="M43.7321 4.74102C43.8826 4.74102 43.9912 4.88533 43.9486 5.03032L40.4336 17.0271C40.0028 18.4929 38.6229 19.5058 37.1146 19.5058H35.5945C35.4701 19.5058 35.3691 19.4047 35.3691 19.2804V17.3391C35.3691 17.2147 35.4701 17.1137 35.5945 17.1137H37.0933C37.6753 17.1137 38.1927 16.7254 38.3432 16.2087C38.3693 16.1303 38.4278 15.9235 38.4786 15.7407C38.5185 15.5971 38.4106 15.4548 38.2615 15.4548H37.7323C37.6341 15.4548 37.5468 15.3909 37.5172 15.2975L34.2758 5.03582C34.2298 4.89014 34.3384 4.7424 34.4909 4.7424H36.4095C36.5085 4.7424 36.5957 4.80699 36.6253 4.90113L38.9198 12.3213C38.9493 12.4161 39.0366 12.48 39.1355 12.48H39.2723C39.3733 12.48 39.462 12.4127 39.4894 12.3158L41.5737 4.90663C41.6011 4.80905 41.6898 4.7424 41.7908 4.7424H43.7328L43.7321 4.74102Z" fill="white"/>
</svg>
