<svg width="38" height="26" viewBox="0 0 38 26" fill="none" xmlns="http://www.w3.org/2000/svg">
<path d="M21.3933 22.7418H9.62464C8.78628 22.7418 7.98296 23.0744 7.38993 23.6667L6.07535 24.9799C5.94273 25.1126 5.71527 25.0184 5.71527 24.8308V5.20565C5.71527 4.12953 6.5873 3.2575 7.66343 3.2575H10.7812C11.2292 3.2575 11.636 3.07539 11.9294 2.78197C12.2229 2.48854 12.405 2.08173 12.405 1.63369C12.405 1.03722 12.0841 0.516336 11.6058 0.234593C11.3639 0.0916592 11.0821 0.0098877 10.7818 0.0098877H5.65068C5.33251 0.0098877 5.02466 0.0559275 4.73329 0.141825C4.20554 0.297128 3.73276 0.582994 3.35413 0.96163C2.11445 2.2013 2.46766 4.26078 2.46766 5.8516V6.29689C2.46766 7.26582 1.99832 8.16052 1.23761 8.76043C0.483775 9.35484 0 10.2763 0 11.3112V14.5589C0 15.5931 0.483775 16.5146 1.23761 17.1097C1.99832 17.7096 2.46766 18.6043 2.46766 19.5732V22.7425C2.46766 23.0758 2.51783 23.3974 2.61128 23.699C2.92601 24.7229 3.73413 25.531 4.75872 25.8465C5.06039 25.9399 5.38199 25.9901 5.71527 25.9901H21.4324C21.8805 25.9901 22.2873 25.808 22.5807 25.5146C22.9222 25.173 23.1126 24.6796 23.0411 24.145C22.9332 23.3328 22.211 22.7425 21.3919 22.7425L21.3933 22.7418Z" fill="white"/>
<path d="M35.8172 8.8532C35.0743 8.25054 34.6173 7.36477 34.6173 6.40822V3.2575C34.6173 2.95514 34.5754 2.66171 34.4978 2.38478C34.4909 2.35592 34.482 2.32843 34.4737 2.30094C34.159 1.27704 33.3509 0.468921 32.3263 0.153506C32.0246 0.0600494 31.703 0.0098877 31.3697 0.0098877H15.6924C14.8733 0.0098877 14.1511 0.600173 14.0432 1.41242C13.9724 1.94704 14.1627 2.44113 14.5036 2.78197C14.797 3.07539 15.2038 3.2575 15.6519 3.2575H29.4209C30.497 3.2575 31.369 4.12953 31.369 5.20565V20.7929C31.369 21.8691 30.497 22.7411 29.4209 22.7411H26.3031C25.8551 22.7411 25.4483 22.9232 25.1549 23.2166C24.8133 23.5582 24.623 24.0515 24.6945 24.5862C24.8023 25.3984 25.5246 25.9887 26.3437 25.9887H31.3697C31.703 25.9887 32.0246 25.9385 32.3263 25.8451C32.8382 25.687 33.2959 25.4067 33.6656 25.037C34.0353 24.6673 34.3157 24.2096 34.4737 23.6976C34.5672 23.396 34.6173 23.0744 34.6173 22.7411V19.5904C34.6173 18.6338 35.0736 17.7481 35.8172 17.1454C36.5511 16.5503 37.0204 15.6412 37.0204 14.6228V11.3751C37.0204 10.3567 36.5511 9.44761 35.8172 8.85251V8.8532Z" fill="white"/>
<path d="M15.5708 13.8098C14.7242 13.4223 13.8776 13.4223 13.031 13.8098C12.4641 14.0696 11.8037 13.6916 11.8037 13.0972V10.6248C11.8037 9.32392 12.9218 8.2691 14.3002 8.2691C15.6794 8.2691 16.7968 9.32392 16.7968 10.6248V13.0972C16.7968 13.6916 16.1364 14.0696 15.5695 13.8098H15.5708Z" fill="white"/>
<path d="M24.3832 13.8098C23.5366 13.4223 22.69 13.4223 21.8434 13.8098C21.2765 14.0696 20.6161 13.6916 20.6161 13.0972V10.6248C20.6161 9.32392 21.7341 8.2691 23.1126 8.2691C24.4918 8.2691 25.6091 9.32392 25.6091 10.6248V13.0972C25.6091 13.6916 24.9488 14.0696 24.3818 13.8098H24.3832Z" fill="white"/>
<path d="M18.5112 19.0826C19.7103 19.0826 20.7191 18.2689 21.016 17.1633C21.1012 16.8465 20.8531 16.5366 20.5253 16.5366H16.4971C16.1686 16.5366 15.9212 16.8465 16.0064 17.1633C16.304 18.2683 17.3121 19.0826 18.5112 19.0826Z" fill="white"/>
</svg>
