<svg width="40" height="40" viewBox="0 0 40 40" fill="none" xmlns="http://www.w3.org/2000/svg">
<circle cx="20.2703" cy="20.3243" r="18.8108" stroke="#1E1E1E" stroke-width="1.56757"/>
<circle cx="34.3784" cy="32.8648" r="3.91892" fill="#00A9A5"/>
<path d="M22.3451 27.9005H13.8736C13.2701 27.9005 12.6919 28.1399 12.265 28.5663L11.3187 29.5116C11.2232 29.607 11.0595 29.5393 11.0595 29.4042V15.2778C11.0595 14.5032 11.6872 13.8755 12.4618 13.8755H14.7061C15.0286 13.8755 15.3215 13.7444 15.5327 13.5332C15.7439 13.322 15.875 13.0291 15.875 12.7066C15.875 12.2773 15.644 11.9023 15.2997 11.6995C15.1261 11.5966 14.9233 11.5378 14.7066 11.5378H11.013C10.7845 11.5378 10.5629 11.5709 10.3531 11.6328C9.97322 11.7445 9.6329 11.9503 9.36034 12.2229C8.46798 13.1152 8.72224 14.5976 8.72224 15.7427V16.0633C8.72224 16.7607 8.38438 17.4047 7.8368 17.8365C7.29416 18.2644 6.94592 18.9277 6.94592 19.6722V22.0098C6.94592 22.7543 7.29416 23.4176 7.8368 23.8459C8.38438 24.2778 8.72224 24.9218 8.72224 25.6192V27.9005C8.72224 28.1404 8.75835 28.3719 8.82562 28.5891C9.05217 29.3261 9.63389 29.9078 10.3714 30.1348C10.5886 30.2021 10.8201 30.2382 11.06 30.2382H22.3738C22.6963 30.2382 22.9891 30.1071 23.2003 29.8959C23.4462 29.6501 23.5832 29.2949 23.5318 28.9101C23.4541 28.3254 22.9342 27.9005 22.3446 27.9005H22.3451Z" fill="white"/>
<path d="M32.7284 17.9033C32.1937 17.4695 31.8648 16.8319 31.8648 16.1434V13.8754C31.8648 13.6578 31.8346 13.4466 31.7787 13.2472C31.7737 13.2265 31.7673 13.2067 31.7614 13.1869C31.5348 12.4499 30.9531 11.8682 30.2156 11.6411C29.9984 11.5739 29.7669 11.5378 29.527 11.5378H18.2419C17.6523 11.5378 17.1324 11.9626 17.0547 12.5473C17.0038 12.9321 17.1408 13.2878 17.3861 13.5331C17.5974 13.7443 17.8902 13.8754 18.2127 13.8754H28.1242C28.8988 13.8754 29.5265 14.5031 29.5265 15.2777V26.4977C29.5265 27.2723 28.8988 27.9 28.1242 27.9H25.8799C25.5574 27.9 25.2645 28.0311 25.0533 28.2423C24.8075 28.4881 24.6705 28.8433 24.7219 29.2281C24.7996 29.8128 25.3194 30.2377 25.9091 30.2377H29.527C29.7669 30.2377 29.9984 30.2016 30.2156 30.1343C30.5841 30.0205 30.9135 29.8187 31.1797 29.5526C31.4458 29.2865 31.6476 28.957 31.7614 28.5885C31.8286 28.3714 31.8648 28.1399 31.8648 27.9V25.6321C31.8648 24.9435 32.1932 24.3059 32.7284 23.8721C33.2567 23.4438 33.5946 22.7894 33.5946 22.0563V19.7186C33.5946 18.9856 33.2567 18.3312 32.7284 17.9028V17.9033Z" fill="white"/>
<path d="M18.1539 21.4712C17.5445 21.1922 16.9351 21.1922 16.3257 21.4712C15.9176 21.6581 15.4422 21.3861 15.4422 20.9582V19.1785C15.4422 18.2421 16.247 17.4829 17.2393 17.4829C18.2321 17.4829 19.0364 18.2421 19.0364 19.1785V20.9582C19.0364 21.3861 18.561 21.6581 18.153 21.4712H18.1539Z" fill="white"/>
<path d="M24.4974 21.4712C23.888 21.1922 23.2786 21.1922 22.6692 21.4712C22.2611 21.6581 21.7857 21.3861 21.7857 20.9582V19.1785C21.7857 18.2421 22.5905 17.4829 23.5828 17.4829C24.5756 17.4829 25.3799 18.2421 25.3799 19.1785V20.9582C25.3799 21.3861 24.9045 21.6581 24.4964 21.4712H24.4974Z" fill="white"/>
<path d="M20.2711 25.2666C21.1343 25.2666 21.8604 24.6809 22.0741 23.885C22.1355 23.657 21.9569 23.4339 21.7209 23.4339H18.8213C18.5848 23.4339 18.4067 23.657 18.4681 23.885C18.6823 24.6804 19.4079 25.2666 20.2711 25.2666Z" fill="white"/>
</svg>
