<svg width="31" height="31" viewBox="0 0 31 31" fill="none" xmlns="http://www.w3.org/2000/svg">
<rect x="0.783784" y="0.783784" width="29.4324" height="29.4324" rx="14.7162" stroke="url(#paint0_linear_9_711)" stroke-width="1.56757"/>
<path d="M10.9594 21.1268C12.552 19.8477 13.7998 18.8005 14.7027 17.9854C15.6056 17.1577 16.3643 16.2987 16.9788 15.4083C17.6058 14.5054 17.9194 13.6213 17.9194 12.756C17.9194 11.9409 17.7187 11.3013 17.3174 10.8373C16.9286 10.3608 16.2954 10.1225 15.4175 10.1225C14.5648 10.1225 13.9001 10.3921 13.4236 10.9314C12.9596 11.4581 12.7088 12.1666 12.6711 13.057H11.0158C11.0659 11.6524 11.4923 10.5677 12.2949 9.8027C13.0975 9.03773 14.1321 8.65524 15.3987 8.65524C16.6904 8.65524 17.7124 9.01265 18.4649 9.72746C19.2298 10.4423 19.6123 11.4267 19.6123 12.6808C19.6123 13.7216 19.2988 14.7374 18.6718 15.7281C18.0573 16.7063 17.355 17.5716 16.565 18.324C15.7749 19.0639 14.7654 19.9292 13.5364 20.9199H20.0074V22.3495H10.9594V21.1268Z" fill="white"/>
<defs>
<linearGradient id="paint0_linear_9_711" x1="15.5" y1="0" x2="15.5" y2="31" gradientUnits="userSpaceOnUse">
<stop stop-color="#00A9A5"/>
<stop offset="1" stop-color="#B5EFEE"/>
</linearGradient>
</defs>
</svg>
